<svg xmlns="http://www.w3.org/2000/svg" width="30" height="30" viewBox="0 0 30 30"><defs><style>.background{fill:#85bef4;}</style></defs><rect class="background" x="0.5" y="0.5" width="29" height="29"/><path d="M29,1V29H1V1H29m1-1H0V30H30V0Z"/><path d="M24.14,5.16H5.86A2.1,2.1,0,0,0,3.75,7.27V22.73a2.1,2.1,0,0,0,2.11,2.11H24.14a2.1,2.1,0,0,0,2.11-2.11V7.27A2.1,2.1,0,0,0,24.14,5.16ZM6.55,7.05h4.7a.37.37,0,0,1,.26.63L9.16,10a.37.37,0,0,1-.52,0L6.29,7.68A.37.37,0,0,1,6.55,7.05ZM24.14,22.47a.26.26,0,0,1-.26.26H6.12a.26.26,0,0,1-.26-.26V12.19H24.14Z"/><rect x="9.33" y="14.3" width="11.25" height="2.11" rx="0.7"/><rect x="9.33" y="18.52" width="7.03" height="2.11" rx="0.7"/></svg>
