<svg xmlns="http://www.w3.org/2000/svg" width="30" height="30" viewBox="0 0 30 30"><defs><style>.background{fill:#85bef4;}</style></defs><rect class="background" x="0.5" y="0.5" width="29" height="29"/><path d="M29,1V29H1V1H29m1-1H0V30H30V0Z"/><path d="M11.66,16.41H9.9a.52.52,0,0,1-.52-.53V14.12a.52.52,0,0,1,.52-.53h1.76a.53.53,0,0,1,.53.53v1.76A.53.53,0,0,1,11.66,16.41Zm4.75-.53V14.12a.53.53,0,0,0-.53-.53H14.12a.53.53,0,0,0-.53.53v1.76a.53.53,0,0,0,.53.53h1.76A.53.53,0,0,0,16.41,15.88Zm4.21,0V14.12a.52.52,0,0,0-.52-.53H18.34a.53.53,0,0,0-.53.53v1.76a.53.53,0,0,0,.53.53H20.1A.52.52,0,0,0,20.62,15.88ZM16.41,20.1V18.34a.53.53,0,0,0-.53-.53H14.12a.53.53,0,0,0-.53.53V20.1a.52.52,0,0,0,.53.52h1.76A.52.52,0,0,0,16.41,20.1Zm-4.22,0V18.34a.53.53,0,0,0-.53-.53H9.9a.52.52,0,0,0-.52.53V20.1a.52.52,0,0,0,.52.52h1.76A.52.52,0,0,0,12.19,20.1Zm8.43,0V18.34a.52.52,0,0,0-.52-.53H18.34a.53.53,0,0,0-.53.53V20.1a.52.52,0,0,0,.53.52H20.1A.52.52,0,0,0,20.62,20.1ZM24.84,8.67V24.14a2.1,2.1,0,0,1-2.11,2.11H7.27a2.1,2.1,0,0,1-2.11-2.11V8.67A2.11,2.11,0,0,1,7.27,6.56H9.38V4.28a.52.52,0,0,1,.52-.53h1.76a.53.53,0,0,1,.53.53V6.56h5.62V4.28a.53.53,0,0,1,.53-.53H20.1a.52.52,0,0,1,.52.53V6.56h2.11A2.11,2.11,0,0,1,24.84,8.67ZM22.73,23.88V10.78H7.27v13.1a.26.26,0,0,0,.26.26H22.47A.26.26,0,0,0,22.73,23.88Z"/></svg>
